<svg fill="currentColor" role="img" viewBox="0 0 24 24" xmlns="http://www.w3.org/2000/svg"><title>Java</title><path d="M10.7 2.1c.5.5.65 1.05.45 1.65-.15.43-.47.84-.9 1.37-.55.68-1.22 1.5-1.22 2.68 0 .74.28 1.48.84 2.2a.75.75 0 0 0 1.18-.92c-.36-.47-.52-.89-.52-1.28 0-.64.38-1.12.89-1.75.5-.62 1.08-1.33 1.3-2.1.36-1.25.01-2.3-.96-3.08a.75.75 0 1 0-1.06 1.23M14.2 2.85c.4.4.52.82.36 1.28-.12.34-.4.7-.76 1.16-.48.6-1.08 1.36-1.08 2.45 0 .7.25 1.36.77 2.02a.75.75 0 0 0 1.18-.93c-.31-.4-.45-.75-.45-1.09 0-.55.32-.96.76-1.52.43-.55.92-1.18 1.12-1.86.32-1.1.01-2.03-.84-2.71a.75.75 0 0 0-1.06 1.2M5.25 11.5a.75.75 0 0 0 0 1.5h9.25c.86 0 1.52.2 1.92.5.33.24.49.55.49.96 0 .43-.17.75-.52 1-.4.3-1.05.48-1.89.48h-.64l.2-1.15a.75.75 0 0 0-1.48-.26l-.25 1.41H7.85L7.3 13.7a.75.75 0 1 0-1.46.35l1.22 5.08A2.42 2.42 0 0 0 9.42 21h3.95a2.42 2.42 0 0 0 2.36-1.87l.4-1.7c.43-.1.8-.25 1.13-.48a2.97 2.97 0 0 0 1.15-2.49 2.77 2.77 0 0 0-1.08-2.17c-.7-.52-1.67-.79-2.83-.79zm2.96 5.94h3.84l-.3 1.34a.92.92 0 0 1-.9.72H9.42a.92.92 0 0 1-.9-.72zM4.75 22a.75.75 0 0 0 0 1.5h13.5a.75.75 0 0 0 0-1.5z"/></svg>
