<svg fill="currentColor" role="img" viewBox="0 0 24 24" xmlns="http://www.w3.org/2000/svg"><title>OpenAI</title><path d="M12 2.1a5.4 5.4 0 0 1 4.95 3.24 5.42 5.42 0 0 1 4.66 7.98 5.42 5.42 0 0 1-4.42 8.55 5.45 5.45 0 0 1-2.18-.45A5.42 5.42 0 0 1 5.05 18.7a5.42 5.42 0 0 1-2.38-9.38A5.42 5.42 0 0 1 9 2.53a5.4 5.4 0 0 1 3-.43m2.9 5.02-4.4 2.54v1.86l2.77-1.6a1 1 0 0 1 1 1.73L10.5 13.83v3.08a3.4 3.4 0 0 0 4.95-2.9V8.08a3.5 3.5 0 0 0-.55-.96m-4.32-2.7A3.42 3.42 0 0 0 7 7.78v5.08l1.5.87V9.08a1 1 0 0 1 .5-.86l4.13-2.39a3.4 3.4 0 0 0-2.55-1.4M18 7.08v5.08a1 1 0 0 1-.5.86l-4.02 2.32v1.75a3.42 3.42 0 0 0 5.27-4.32l-4.4-2.54.55-.96a3.4 3.4 0 0 0 3.1-2.19M5.72 8.66a3.42 3.42 0 0 0-.47 6.06l4.4 2.54.86-1.5-4.02-2.32a1 1 0 0 1-.5-.86V8.66zm11.92 5.15v-1.73l-2.7 1.55v1.73zm-7.57 1.25 1.5.87 1.9-1.1-1.5-.86zm1.96-5.82-1.5.86v1.73l1.5-.86z"/></svg>
